<mxfile host="app.diagrams.net" agent="Mozilla/5.0 (Windows NT 10.0; Win64; x64; rv:138.0) Gecko/20100101 Firefox/138.0" version="27.0.9">
  <diagram name="Página-1" id="ZfuYBb1uDBB9Q9XqHdRm">
    <mxGraphModel grid="1" page="1" gridSize="10" guides="1" tooltips="1" connect="1" arrows="1" fold="1" pageScale="1" pageWidth="827" pageHeight="1169" math="0" shadow="0">
      <root>
        <mxCell id="0" />
        <mxCell id="1" parent="0" />
        <mxCell id="xhxJ-erMx7XFRVzpnPpw-1" style="edgeStyle=orthogonalEdgeStyle;rounded=0;orthogonalLoop=1;jettySize=auto;html=1;exitX=0.5;exitY=0.5;exitDx=0;exitDy=0;exitPerimeter=0;entryX=0;entryY=0.5;entryDx=0;entryDy=0;" edge="1" parent="1" source="xhxJ-erMx7XFRVzpnPpw-2" target="xhxJ-erMx7XFRVzpnPpw-3">
          <mxGeometry relative="1" as="geometry" />
        </mxCell>
        <mxCell id="xhxJ-erMx7XFRVzpnPpw-2" value="Recepcionista" style="shape=umlActor;verticalLabelPosition=bottom;verticalAlign=top;html=1;" vertex="1" parent="1">
          <mxGeometry x="70" y="445" width="30" height="60" as="geometry" />
        </mxCell>
        <mxCell id="xhxJ-erMx7XFRVzpnPpw-3" value="Registrar Equipos y Clientes" style="ellipse;whiteSpace=wrap;html=1;" vertex="1" parent="1">
          <mxGeometry x="160" y="440" width="140" height="70" as="geometry" />
        </mxCell>
        <mxCell id="xhxJ-erMx7XFRVzpnPpw-4" value="Registrando nuevo equipo" style="ellipse;whiteSpace=wrap;html=1;" vertex="1" parent="1">
          <mxGeometry x="420" y="250" width="140" height="70" as="geometry" />
        </mxCell>
        <mxCell id="xhxJ-erMx7XFRVzpnPpw-5" value="Registrando nuevo cliente" style="ellipse;whiteSpace=wrap;html=1;" vertex="1" parent="1">
          <mxGeometry x="420" y="330" width="140" height="70" as="geometry" />
        </mxCell>
        <mxCell id="xhxJ-erMx7XFRVzpnPpw-6" value="Generando orden de trabajo asociada a equipo ya ingresado" style="ellipse;whiteSpace=wrap;html=1;" vertex="1" parent="1">
          <mxGeometry x="420" y="410" width="140" height="70" as="geometry" />
        </mxCell>
        <mxCell id="xhxJ-erMx7XFRVzpnPpw-8" value="Mostrando alerta de registro exitoso" style="ellipse;whiteSpace=wrap;html=1;" vertex="1" parent="1">
          <mxGeometry x="420" y="490" width="140" height="70" as="geometry" />
        </mxCell>
        <mxCell id="xhxJ-erMx7XFRVzpnPpw-9" value="Enviando correo de notificación a laboratorio" style="ellipse;whiteSpace=wrap;html=1;" vertex="1" parent="1">
          <mxGeometry x="420" y="570" width="140" height="70" as="geometry" />
        </mxCell>
        <mxCell id="xhxJ-erMx7XFRVzpnPpw-10" value="Enviando correo de confirmación al cliente" style="ellipse;whiteSpace=wrap;html=1;" vertex="1" parent="1">
          <mxGeometry x="420" y="650" width="140" height="70" as="geometry" />
        </mxCell>
        <mxCell id="xhxJ-erMx7XFRVzpnPpw-11" value="Extends" style="endArrow=block;endSize=16;endFill=0;html=1;rounded=0;exitX=1;exitY=0.5;exitDx=0;exitDy=0;entryX=0;entryY=0.5;entryDx=0;entryDy=0;" edge="1" parent="1" source="xhxJ-erMx7XFRVzpnPpw-3" target="xhxJ-erMx7XFRVzpnPpw-4">
          <mxGeometry width="160" relative="1" as="geometry">
            <mxPoint x="330" y="590" as="sourcePoint" />
            <mxPoint x="490" y="590" as="targetPoint" />
          </mxGeometry>
        </mxCell>
        <mxCell id="xhxJ-erMx7XFRVzpnPpw-12" value="Extends" style="endArrow=block;endSize=16;endFill=0;html=1;rounded=0;exitX=1;exitY=0.5;exitDx=0;exitDy=0;entryX=0;entryY=0.5;entryDx=0;entryDy=0;" edge="1" parent="1" source="xhxJ-erMx7XFRVzpnPpw-3" target="xhxJ-erMx7XFRVzpnPpw-10">
          <mxGeometry width="160" relative="1" as="geometry">
            <mxPoint x="120" y="130" as="sourcePoint" />
            <mxPoint x="280" y="130" as="targetPoint" />
          </mxGeometry>
        </mxCell>
        <mxCell id="xhxJ-erMx7XFRVzpnPpw-13" value="Extends" style="endArrow=block;endSize=16;endFill=0;html=1;rounded=0;exitX=1;exitY=0.5;exitDx=0;exitDy=0;entryX=0;entryY=0.5;entryDx=0;entryDy=0;" edge="1" parent="1" source="xhxJ-erMx7XFRVzpnPpw-3" target="xhxJ-erMx7XFRVzpnPpw-9">
          <mxGeometry width="160" relative="1" as="geometry">
            <mxPoint x="130" y="140" as="sourcePoint" />
            <mxPoint x="290" y="140" as="targetPoint" />
          </mxGeometry>
        </mxCell>
        <mxCell id="xhxJ-erMx7XFRVzpnPpw-14" value="Extends" style="endArrow=block;endSize=16;endFill=0;html=1;rounded=0;exitX=1;exitY=0.5;exitDx=0;exitDy=0;entryX=0;entryY=0.5;entryDx=0;entryDy=0;" edge="1" parent="1" source="xhxJ-erMx7XFRVzpnPpw-3" target="xhxJ-erMx7XFRVzpnPpw-8">
          <mxGeometry width="160" relative="1" as="geometry">
            <mxPoint x="140" y="150" as="sourcePoint" />
            <mxPoint x="300" y="150" as="targetPoint" />
          </mxGeometry>
        </mxCell>
        <mxCell id="xhxJ-erMx7XFRVzpnPpw-16" value="Extends" style="endArrow=block;endSize=16;endFill=0;html=1;rounded=0;exitX=1;exitY=0.5;exitDx=0;exitDy=0;entryX=0;entryY=0.5;entryDx=0;entryDy=0;" edge="1" parent="1" source="xhxJ-erMx7XFRVzpnPpw-3" target="xhxJ-erMx7XFRVzpnPpw-6">
          <mxGeometry width="160" relative="1" as="geometry">
            <mxPoint x="160" y="170" as="sourcePoint" />
            <mxPoint x="320" y="170" as="targetPoint" />
          </mxGeometry>
        </mxCell>
        <mxCell id="xhxJ-erMx7XFRVzpnPpw-17" value="Extends" style="endArrow=block;endSize=16;endFill=0;html=1;rounded=0;exitX=1;exitY=0.5;exitDx=0;exitDy=0;entryX=0;entryY=0.5;entryDx=0;entryDy=0;" edge="1" parent="1" source="xhxJ-erMx7XFRVzpnPpw-3" target="xhxJ-erMx7XFRVzpnPpw-5">
          <mxGeometry width="160" relative="1" as="geometry">
            <mxPoint x="170" y="200" as="sourcePoint" />
            <mxPoint x="330" y="200" as="targetPoint" />
          </mxGeometry>
        </mxCell>
      </root>
    </mxGraphModel>
  </diagram>
</mxfile>
